<svg width="53" height="47" viewBox="0 0 53 47" fill="none" xmlns="http://www.w3.org/2000/svg">
<path d="M53 0H0V47H53V0Z" fill="#F887EE"/>
<path d="M34.6175 20.8964H33.7327L33.5115 21.8673H32.8111L33.0323 20.8964H32.129L31.9078 21.8673H30.9309V22.6764H31.7419L31.576 23.3236H30.9309V24.1327H31.3917L31.1705 25.1036H32.0553L32.2765 24.1327H32.977L32.7558 25.1036H33.659L33.8802 24.1327H34.8018V23.3236H34.0461L34.212 22.6764H34.8018V21.8673H34.3963L34.6175 20.8964ZM33.1613 23.3236H32.4608L32.6267 22.6764H33.3272L33.1613 23.3236ZM36 18.0324C35.8894 17.8544 35.7419 17.6926 35.576 17.6117L26.7097 13.1133C26.5622 13.0324 26.3594 13 26.1382 13C25.9171 13 25.7143 13.0485 25.5668 13.1133L16.6267 17.6117C16.3134 17.7735 16 18.178 16 18.4854V27.4984C16 27.6764 16.129 27.8705 16.2581 28.0485L16.2765 28.0647C16.3687 28.1942 16.5161 28.3074 16.6452 28.3722L25.5484 32.8867C25.6959 32.9676 25.9171 33 26.1382 33C26.3594 33 26.5622 32.9515 26.7097 32.8867L35.4654 28.3722C35.7788 28.2104 35.9078 27.8058 35.9078 27.4984V18.4854C35.9078 18.356 35.9816 18.1942 35.9078 18.0647L36 18.0324ZM35.2258 18.3722C35.2258 18.4207 35.1705 18.4531 35.1705 18.4854V27.4984C35.1705 27.6278 35.1336 27.7735 35.0968 27.822L26.3226 32.3204C26.3041 32.3366 26.2304 32.3528 26.1198 32.3528C26.0092 32.3528 25.9355 32.3366 25.9171 32.3204L17.0323 27.822C17.0323 27.822 17.0138 27.8058 16.9954 27.8058L16.8848 27.7087C16.8111 27.5955 16.9217 27.5307 16.7373 27.5146V18.5016C16.9217 18.4207 16.9032 18.2265 16.9954 18.1942L25.8986 13.6796C25.9171 13.6796 26.0092 13.6472 26.1198 13.6472C26.2304 13.6472 26.3041 13.6634 26.3226 13.6796L35.1705 18.1618L35.2442 18.3074C35.2627 18.3236 35.2258 18.356 35.2258 18.3722ZM26.1382 26.9644C23.6498 26.9644 21.6221 25.1845 21.6221 23C21.6221 20.8155 23.6498 19.0356 26.1382 19.0356C27.8157 19.0356 29.2903 19.8447 30.0645 21.0583L32.4608 19.8447C31.2074 17.9191 28.8479 16.6084 26.1382 16.6084C22.1198 16.6084 18.8571 19.4725 18.8571 23C18.8571 26.5275 22.1198 29.3916 26.1382 29.3916C28.8295 29.3916 31.1889 28.0971 32.4424 26.1877L30.0645 24.9579C29.2903 26.1553 27.8157 26.9644 26.1382 26.9644Z" fill="white"/>
</svg>
