<svg width="53" height="47" viewBox="0 0 53 47" fill="none" xmlns="http://www.w3.org/2000/svg">
<path d="M53 0H0V47H53V0Z" fill="#F887EE"/>
<path fill-rule="evenodd" clip-rule="evenodd" d="M24.9999 14C19.4778 14 15 18.5902 15 24.2532C15 28.7835 17.8653 32.6266 21.8386 33.9825C22.3382 34.0776 22.5216 33.7601 22.5216 33.4893C22.5216 33.2448 22.5124 32.4371 22.5081 31.5804C19.7261 32.2006 19.139 30.3706 19.139 30.3706C18.6841 29.1855 18.0287 28.8704 18.0287 28.8704C17.1213 28.234 18.0971 28.2473 18.0971 28.2473C19.1011 28.3194 19.63 29.3039 19.63 29.3039C20.5219 30.871 21.9694 30.418 22.54 30.1562C22.6298 29.4935 22.8889 29.041 23.1749 28.785C20.9538 28.5261 18.6187 27.6467 18.6187 23.718C18.6187 22.5986 19.0095 21.6839 19.6492 20.9657C19.5452 20.7077 19.203 19.6648 19.7459 18.2525C19.7459 18.2525 20.5855 17.9769 22.4965 19.3035C23.2943 19.0762 24.1499 18.9619 24.9999 18.958C25.8494 18.9619 26.7055 19.0758 27.5049 19.3032C29.4135 17.9766 30.2521 18.2522 30.2521 18.2522C30.7964 19.6643 30.4541 20.7073 30.3503 20.9654C30.9915 21.6836 31.3794 22.5982 31.3794 23.7177C31.3794 27.6557 29.0401 28.5227 26.8133 28.7767C27.1722 29.0949 27.4918 29.719 27.4918 30.6754C27.4918 32.0473 27.4802 33.1514 27.4802 33.4891C27.4802 33.762 27.6604 34.0817 28.1671 33.981C32.138 32.6237 35 28.7818 35 24.2532C34.9998 18.5906 30.5225 14.0002 24.9999 14.0002V14Z" fill="white"/>
<path d="M36.7875 28.7214C36.7655 28.7724 36.6873 28.7876 36.6161 28.7528C36.5433 28.7195 36.5027 28.6501 36.5262 28.599C36.5477 28.5464 36.6261 28.5319 36.6984 28.5671C36.7713 28.6005 36.8127 28.6706 36.7874 28.7216L36.7875 28.7214ZM37.1926 29.1848C37.145 29.2301 37.0518 29.209 36.9886 29.1372C36.923 29.0659 36.9107 28.9703 36.9592 28.9243C37.0086 28.8791 37.099 28.9005 37.1646 28.9719C37.2298 29.0442 37.2427 29.1389 37.1927 29.1849L37.1926 29.1848ZM37.587 29.7751C37.5257 29.8189 37.4254 29.778 37.3635 29.6868C37.3022 29.5955 37.3022 29.486 37.3651 29.4423C37.4269 29.3985 37.5257 29.4381 37.5887 29.5284C37.6496 29.621 37.6496 29.7305 37.587 29.775V29.7751ZM38.127 30.3458C38.0724 30.4078 37.9555 30.3911 37.87 30.3067C37.7827 30.224 37.7584 30.1064 37.8132 30.0446C37.8689 29.9824 37.9863 29.9998 38.0722 30.0836C38.1595 30.1661 38.1858 30.284 38.1273 30.3456L38.127 30.3458ZM38.8722 30.677C38.8478 30.7573 38.7356 30.7938 38.6221 30.7596C38.509 30.7244 38.435 30.6305 38.4582 30.5494C38.4814 30.4684 38.5945 30.4305 38.7086 30.467C38.8217 30.502 38.8957 30.5954 38.8722 30.677ZM39.6907 30.7383C39.6935 30.8229 39.5975 30.8928 39.4788 30.8945C39.359 30.8974 39.2622 30.8288 39.261 30.7456C39.261 30.6602 39.3551 30.5911 39.4746 30.5887C39.5934 30.5865 39.6909 30.6545 39.6909 30.7382L39.6907 30.7383ZM40.4521 30.6056C40.4664 30.6879 40.3837 30.7726 40.2657 30.7952C40.1498 30.8173 40.0421 30.766 40.0272 30.6843C40.013 30.5998 40.0971 30.5151 40.213 30.4932C40.3312 30.4723 40.4372 30.522 40.4521 30.6057V30.6056Z" fill="white"/>
</svg>
