<svg width="53" height="47" viewBox="0 0 53 47" fill="none" xmlns="http://www.w3.org/2000/svg">
<path d="M53 0H0V47H53V0Z" fill="#F887EE"/>
<path d="M16 14L17.8202 32.0078L25.9878 34L34.178 32.01L36 14H16ZM32.2142 18.2635L32.1001 19.4157L32.0499 19.9441H22.4689L22.6975 22.1932H31.8221L31.761 22.7508L31.1728 28.5533L31.1295 28.918L26 30.1629V30.1632L25.9938 30.1661L20.8677 28.9736L20.5197 25.5668H23.033L23.2111 27.321L25.9922 27.9766H26V27.8889L28.7934 27.2663L29.0852 24.4423H20.4078L19.7924 18.3188L19.7325 17.695H32.2742L32.2142 18.2635Z" fill="white"/>
</svg>
