<svg width="53" height="47" viewBox="0 0 53 47" fill="none" xmlns="http://www.w3.org/2000/svg">
<path d="M53 0H0V47H53V0Z" fill="#F887EE"/>
<path d="M16 14L17.8202 31.9946L25.9879 34L34.1783 31.9873L36 14H16ZM32.2185 18.1227L31.6126 24.1172L31.6144 24.1496L31.6119 24.2241V24.2234L31.1814 28.4149L31.134 28.7873L26 30.0377V30.0379L25.996 30.0409L20.8709 28.7835L20.5239 25.3181H23.0371L23.2154 27.0802L26.0007 27.7449L26 27.7462V27.7459L28.7956 27.0717L29.0911 24.2022H23.2469L23.1968 23.7171L23.0826 22.5807L23.0226 21.9705H29.3132L29.542 19.7387H19.9609L19.9107 19.254L19.7967 18.1172L19.7366 17.507H32.2784L32.2185 18.1227Z" fill="white"/>
</svg>
