<svg width="53" height="47" viewBox="0 0 53 47" fill="none" xmlns="http://www.w3.org/2000/svg">
<path d="M53 0H0V47H53V0Z" fill="#F887EE"/>
<path d="M16 14V34H36V14H16ZM26.579 31.0421C26.2838 31.6419 25.7203 32.036 25.0674 32.2262C24.064 32.4566 23.1043 32.3253 22.3904 31.8968C21.9126 31.6037 21.5395 31.1525 21.2862 30.6326L22.8094 29.6998C22.8227 29.7054 22.8627 29.7778 22.9162 29.8712C23.1104 30.1966 23.2779 30.427 23.6072 30.5888C23.9307 30.6992 24.641 30.7698 24.9152 30.2005C25.0827 29.9109 25.0294 28.98 25.0294 27.9501C25.0293 26.3317 25.0368 24.72 25.0368 23.12H26.9102C26.9102 24.88 26.9198 26.5469 26.9102 28.2643C26.9142 29.3171 27.0056 30.2557 26.579 31.0421ZM34.3509 30.5128C33.6997 32.7403 30.069 32.8126 28.6181 31.341C28.3115 30.9946 28.1194 30.8136 27.9365 30.4138C28.7075 29.9702 28.7075 29.9702 29.4578 29.5362C29.8653 30.1626 30.2421 30.507 30.92 30.648C31.8397 30.7603 32.765 30.4443 32.5574 29.4675C32.3442 28.6698 30.6742 28.4757 29.5378 27.6226C28.384 26.8477 28.1136 24.9648 29.0618 23.889C29.3778 23.491 29.9166 23.1941 30.4821 23.0514L31.0722 22.975C32.2051 22.9522 32.9133 23.2514 33.4331 23.8318C33.5778 23.9784 33.6958 24.1365 33.9166 24.479C33.3131 24.8637 33.315 24.86 32.4506 25.4197C32.2659 25.0219 31.9595 24.7723 31.6357 24.6638C31.133 24.5115 30.499 24.6771 30.3675 25.2083C30.3219 25.372 30.3314 25.5243 30.4038 25.7947C30.6075 26.2592 31.291 26.4611 31.9042 26.7429C33.6691 27.4587 34.2651 28.2262 34.4117 29.1398C34.5528 29.9264 34.3776 30.4366 34.3509 30.5128Z" fill="white"/>
<path d="M16 14V34H36V14H16ZM26.579 31.0421C26.2838 31.6419 25.7203 32.036 25.0674 32.2262C24.064 32.4566 23.1043 32.3253 22.3904 31.8968C21.9126 31.6037 21.5395 31.1525 21.2862 30.6326L22.8094 29.6998C22.8227 29.7054 22.8627 29.7778 22.9162 29.8712C23.1104 30.1966 23.2779 30.427 23.6072 30.5888C23.9307 30.6992 24.641 30.7698 24.9152 30.2005C25.0827 29.9109 25.0294 28.98 25.0294 27.9501C25.0293 26.3317 25.0368 24.72 25.0368 23.12H26.9102C26.9102 24.88 26.9198 26.5469 26.9102 28.2643C26.9142 29.3171 27.0056 30.2557 26.579 31.0421ZM34.3509 30.5128C33.6997 32.7403 30.069 32.8126 28.6181 31.341C28.3115 30.9946 28.1194 30.8136 27.9365 30.4138C28.7075 29.9702 28.7075 29.9702 29.4578 29.5362C29.8653 30.1626 30.2421 30.507 30.92 30.648C31.8397 30.7603 32.765 30.4443 32.5574 29.4675C32.3442 28.6698 30.6742 28.4757 29.5378 27.6226C28.384 26.8477 28.1136 24.9648 29.0618 23.889C29.3778 23.491 29.9166 23.1941 30.4821 23.0514L31.0722 22.975C32.2051 22.9522 32.9133 23.2514 33.4331 23.8318C33.5778 23.9784 33.6958 24.1365 33.9166 24.479C33.3131 24.8637 33.315 24.86 32.4506 25.4197C32.2659 25.0219 31.9595 24.7723 31.6357 24.6638C31.133 24.5115 30.499 24.6771 30.3675 25.2083C30.3219 25.372 30.3314 25.5243 30.4038 25.7947C30.6075 26.2592 31.291 26.4611 31.9042 26.7429C33.6691 27.4587 34.2651 28.2262 34.4117 29.1398C34.5528 29.9264 34.3776 30.4366 34.3509 30.5128Z" fill="white"/>
<path d="M16 14V34H36V14H16ZM26.579 31.0421C26.2838 31.6419 25.7203 32.036 25.0674 32.2262C24.064 32.4566 23.1043 32.3253 22.3904 31.8968C21.9126 31.6037 21.5395 31.1525 21.2862 30.6326L22.8094 29.6998C22.8227 29.7054 22.8627 29.7778 22.9162 29.8712C23.1104 30.1966 23.2779 30.427 23.6072 30.5888C23.9307 30.6992 24.641 30.7698 24.9152 30.2005C25.0827 29.9109 25.0294 28.98 25.0294 27.9501C25.0293 26.3317 25.0368 24.72 25.0368 23.12H26.9102C26.9102 24.88 26.9198 26.5469 26.9102 28.2643C26.9142 29.3171 27.0056 30.2557 26.579 31.0421ZM34.3509 30.5128C33.6997 32.7403 30.069 32.8126 28.6181 31.341C28.3115 30.9946 28.1194 30.8136 27.9365 30.4138C28.7075 29.9702 28.7075 29.9702 29.4578 29.5362C29.8653 30.1626 30.2421 30.507 30.92 30.648C31.8397 30.7603 32.765 30.4443 32.5574 29.4675C32.3442 28.6698 30.6742 28.4757 29.5378 27.6226C28.384 26.8477 28.1136 24.9648 29.0618 23.889C29.3778 23.491 29.9166 23.1941 30.4821 23.0514L31.0722 22.975C32.2051 22.9522 32.9133 23.2514 33.4331 23.8318C33.5778 23.9784 33.6958 24.1365 33.9166 24.479C33.3131 24.8637 33.315 24.86 32.4506 25.4197C32.2659 25.0219 31.9595 24.7723 31.6357 24.6638C31.133 24.5115 30.499 24.6771 30.3675 25.2083C30.3219 25.372 30.3314 25.5243 30.4038 25.7947C30.6075 26.2592 31.291 26.4611 31.9042 26.7429C33.6691 27.4587 34.2651 28.2262 34.4117 29.1398C34.5528 29.9264 34.3776 30.4366 34.3509 30.5128Z" fill="white"/>
</svg>
