<svg width="53" height="47" viewBox="0 0 53 47" fill="none" xmlns="http://www.w3.org/2000/svg">
<path d="M53 0H0V47H53V0Z" fill="#F887EE"/>
<path d="M13.15 16.1739C13.15 17.3748 12.225 18.3478 11.0833 18.3478C9.94167 18.3478 9.01667 17.3748 9.01667 16.1739C9.01667 14.9739 9.94167 14 11.0833 14C12.225 14 13.15 14.9739 13.15 16.1739ZM13.1667 20.087H9V34H13.1667V20.087ZM19.8183 20.087H15.6783V34H19.8192V26.6965C19.8192 22.6357 24.8433 22.3035 24.8433 26.6965V34H29V25.1904C29 18.3383 21.565 18.5878 19.8183 21.9609V20.087Z" fill="white"/>
</svg>
