<svg width="53" height="47" viewBox="0 0 53 47" fill="none" xmlns="http://www.w3.org/2000/svg">
<path d="M53 0H0V47H53V0Z" fill="#F887EE"/>
<path fill-rule="evenodd" clip-rule="evenodd" d="M33.3679 15.9868C31.3993 15.0117 29.3829 14.9125 27.3185 15.645C25.4187 16.3192 23.9033 17.5255 22.7768 19.1684C20.8706 21.9485 19.486 24.982 18.71 28.2773C18.3126 29.9637 18.0552 31.7525 18.1244 33.4942C18.1301 33.6356 18.151 33.6762 18.1649 34H27.9009C27.873 33.6762 27.8546 33.7708 27.8304 33.7091C27.3183 32.3967 26.9129 31.0109 26.6324 29.6296C26.2295 27.6462 26.0185 25.626 26.4347 23.6243C27.017 20.8214 28.6087 18.799 31.292 17.7502C32.8119 17.1565 34.2546 17.3254 35.5199 18.4402C35.5315 18.4504 35.5553 18.4442 35.5863 18.4493L36 17.8206C35.2033 17.0592 34.3278 16.4625 33.3679 15.9868ZM16.2161 28.8831C16.1419 29.5182 16.0726 30.1128 16 30.737L17.7954 30.9533L18.1243 29.0278C17.4703 28.9781 16.8492 28.931 16.2161 28.8831ZM19.7401 23.3484L18.0514 22.6852L17.5056 24.2405L19.2266 24.7942C19.4008 24.3035 19.5647 23.8419 19.7401 23.3484ZM27.7106 32.0357C28.2871 32.0788 28.8649 32.1084 29.5013 32.1456C29.2702 31.6633 29.0649 31.2272 28.8499 30.7962C28.8263 30.7494 28.7468 30.7043 28.6928 30.7034C28.2036 30.6963 27.7141 30.6994 27.1943 30.6994C27.3114 31.1249 27.4132 31.5175 27.5323 31.9044C27.5502 31.9628 27.6464 32.031 27.7106 32.0357ZM22.6024 18.6364L21.3194 17.7835C20.9756 18.1693 20.644 18.5412 20.2938 18.9338L21.6128 19.8236L22.6024 18.6364ZM26.6884 27.2767C26.6863 27.3287 26.7329 27.4114 26.7783 27.432C27.2404 27.6405 27.7073 27.8392 28.2157 28.059C28.1946 27.6556 28.1804 27.3183 28.1563 26.9817C28.152 26.9212 28.1236 26.8341 28.0789 26.8092C27.6546 26.5734 27.2243 26.3482 26.7538 26.0976C26.7282 26.5291 26.7021 26.9026 26.6884 27.2767ZM26.3082 15.5923L25.4299 14.5916L24.2204 15.2226C24.523 15.5927 24.8086 15.942 25.1002 16.2983L26.3082 15.5923ZM26.859 23.5537C26.8327 23.6143 26.8674 23.7427 26.9191 23.7895C27.2699 24.1071 27.6327 24.4111 28.0362 24.7578C28.1286 24.3692 28.2157 24.0229 28.2896 23.6742C28.3026 23.6122 28.2844 23.5097 28.2415 23.475C27.9276 23.221 27.6036 22.9792 27.2678 22.7221C27.1203 23.0159 26.9772 23.2795 26.859 23.5537ZM28.867 15.0664C29.3153 15.0786 29.7642 15.0732 30.2377 15.0732C30.1904 14.7423 30.1679 14.4915 30.1116 14.2488C30.0948 14.1766 29.9866 14.0805 29.9135 14.0743C29.464 14.0377 29.0128 14.0236 28.5183 14C28.5842 14.334 28.6346 14.6283 28.7057 14.9176C28.7207 14.979 28.81 15.0648 28.867 15.0664ZM29.4129 20.8421C29.4358 20.799 29.4416 20.7208 29.4176 20.6833C29.1973 20.3373 28.9684 19.9967 28.7315 19.6382L27.9638 20.3461L29.0253 21.5269C29.1679 21.2778 29.2955 21.0626 29.4129 20.8421ZM30.2411 18.4902L30.6996 19.3452C31.4172 18.9505 31.4859 18.8077 31.2318 18.2388L30.2411 18.4902ZM33.6743 15.8557C33.9728 16.0406 34.2881 16.1981 34.6085 16.3713L34.823 16.0362C34.4323 15.7495 34.0553 15.4721 33.6274 15.1577C33.6106 15.3365 33.5856 15.4613 33.5921 15.5847C33.5972 15.6787 33.6129 15.8178 33.6743 15.8557ZM33.2579 18.5624C33.5804 18.5976 34.0643 18.6311 34.3869 18.6665V18.2265C34.0643 18.1556 33.5804 18.0853 33.2579 18.0123V18.5624Z" fill="white"/>
</svg>
